<?xml version="1.0" encoding="UTF-8"?>
<svg version="1.1" xmlns="http://www.w3.org/2000/svg" width="128" height="128">
<path d="M0 0 C1.20792206 -0.0098568 1.20792206 -0.0098568 2.44024658 -0.01991272 C5.10778906 -0.03963636 7.77527517 -0.05130838 10.44287109 -0.0612793 C11.35562176 -0.06535482 12.26837242 -0.06943035 13.2087822 -0.07362938 C18.04315718 -0.09448961 22.87750381 -0.10878957 27.71191406 -0.11816406 C32.69175956 -0.12920742 37.67115562 -0.16358344 42.65084267 -0.20333576 C46.49088335 -0.22955828 50.33081807 -0.23786106 54.1709404 -0.24144554 C56.0056498 -0.24629967 57.84035484 -0.25788001 59.67497635 -0.27648354 C78.11102936 -0.45175716 78.11102936 -0.45175716 85.09130859 4.17700195 C86.32300781 4.98911133 86.32300781 4.98911133 87.57958984 5.81762695 C93.01632401 10.61406052 95.8144231 15.34634547 98.09130859 22.17700195 C98.20285508 24.82157311 98.25895834 27.44049041 98.26831055 30.08569336 C98.27488174 30.89097473 98.28145294 31.6962561 98.28822327 32.52593994 C98.3079469 35.19348242 98.31961893 37.86096853 98.32958984 40.52856445 C98.33366537 41.44131512 98.3377409 42.35406578 98.34193993 43.29447556 C98.36280015 48.12885054 98.37710012 52.96319717 98.38647461 57.79760742 C98.39751797 62.77745291 98.43189398 67.75684898 98.47164631 72.73653603 C98.49786883 76.57657671 98.50617161 80.41651143 98.50975609 84.25663376 C98.51461022 86.09134316 98.52619056 87.9260482 98.54479408 89.76066971 C98.72006771 108.19672272 98.72006771 108.19672272 94.09130859 115.17700195 C93.54990234 115.99813477 93.00849609 116.81926758 92.45068359 117.6652832 C87.65425003 123.10201737 82.92196507 125.90011646 76.09130859 128.17700195 C73.44673744 128.28854844 70.82782014 128.3446517 68.18261719 128.35400391 C66.97469513 128.3638607 66.97469513 128.3638607 65.74237061 128.37391663 C63.07482813 128.39364026 60.40734202 128.40531229 57.73974609 128.4152832 C56.82699543 128.41935873 55.91424477 128.42343426 54.97383499 128.42763329 C50.13946001 128.44849351 45.30511338 128.46279348 40.47070312 128.47216797 C35.49085763 128.48321133 30.51146157 128.51758734 25.53177452 128.55733967 C21.69173384 128.58356219 17.85179912 128.59186497 14.01167679 128.59544945 C12.17696739 128.60030358 10.34226234 128.61188392 8.50764084 128.63048744 C-9.92841217 128.80576107 -9.92841217 128.80576107 -16.90869141 124.17700195 C-17.72982422 123.6355957 -18.55095703 123.09418945 -19.39697266 122.53637695 C-24.83370682 117.73994339 -27.63180591 113.00765843 -29.90869141 106.17700195 C-30.02023789 103.5324308 -30.07634115 100.9135135 -30.08569336 98.26831055 C-30.09226456 97.46302917 -30.09883575 96.6577478 -30.10560608 95.82806396 C-30.12532972 93.16052148 -30.13700174 90.49303538 -30.14697266 87.82543945 C-30.15104818 86.91268879 -30.15512371 85.99993813 -30.15932274 85.05952835 C-30.18018297 80.22515337 -30.19448293 75.39080674 -30.20385742 70.55639648 C-30.21490078 65.57655099 -30.2492768 60.59715493 -30.28902912 55.61746788 C-30.31525164 51.7774272 -30.32355442 47.93749248 -30.3271389 44.09737015 C-30.33199303 42.26266074 -30.34357337 40.4279557 -30.3621769 38.5933342 C-30.53745052 20.15728119 -30.53745052 20.15728119 -25.90869141 13.17700195 C-25.36728516 12.35586914 -24.82587891 11.53473633 -24.26806641 10.6887207 C-17.39944532 2.90317204 -10.32207275 0.03649404 0 0 Z " fill="#FEFEFE" transform="translate(29.90869140625,-0.177001953125)"/>
<path d="M0 0 C5.61 0 11.22 0 17 0 C16.67 3.96 16.34 7.92 16 12 C17.98 12 19.96 12 22 12 C22 14.97 22 17.94 22 21 C19.69 21 17.38 21 15 21 C15.2565495 23.71037002 15.52971049 26.41734615 15.8125 29.125 C15.88275391 29.88554688 15.95300781 30.64609375 16.02539062 31.4296875 C16.63763538 37.11131885 17.65420166 41.98931571 22.1875 45.875 C22.785625 46.24625 23.38375 46.6175 24 47 C23.05012011 50.51455559 22.34054201 51.77555186 19.25 53.8125 C15.7504993 55.09116372 13.68250818 55.53703244 10 55 C6.53948317 53.23581495 4.45418083 51.60557444 2.125 48.5 C-0.66390878 39.82339492 1.11343417 29.92898442 2 21 C0.02 21 -1.96 21 -4 21 C-4.495 22.485 -4.495 22.485 -5 24 C-5.99 23.34 -6.98 22.68 -8 22 C-11.70544587 21.80149397 -14.47005387 21.82335129 -18 23 C-20.21852079 26.96998457 -20.4001932 30.51783613 -20 35 C-18.25271222 38.72803465 -18.25271222 38.72803465 -15 41 C-8.40637384 41.44371721 -8.40637384 41.44371721 -3 38 C-2.01 38.33 -1.02 38.66 0 39 C0.61172472 46.21835174 0.61172472 46.21835174 -2.25 49.875 C-8.77019213 54.91333028 -14.90577255 54.87823273 -23 54 C-28.7567556 51.94904579 -32.09166227 48.35134142 -35 43 C-35.33 42.01 -35.66 41.02 -36 40 C-36 44.62 -36 49.24 -36 54 C-41.28 54 -46.56 54 -52 54 C-51.83628906 52.50855469 -51.67257813 51.01710937 -51.50390625 49.48046875 C-50.8323353 42.09318825 -50.89050043 34.7233564 -50.9375 27.3125 C-50.94252972 25.91731933 -50.94709 24.52213689 -50.95117188 23.12695312 C-50.96285239 19.75128305 -50.98078386 16.37563559 -51 13 C-46.05 12.67 -41.1 12.34 -36 12 C-36 16.29 -36 20.58 -36 25 C-35.195625 23.618125 -34.39125 22.23625 -33.5625 20.8125 C-30.18190968 15.81647608 -26.80361219 12.82196095 -21 11 C-13.68107625 10.16044734 -6.28304133 11.14317161 1 12 C0.505 6.06 0.505 6.06 0 0 Z " fill="#FE3C4A" transform="translate(78,38)"/>
<path d="M0 0 C2.5625 1.5625 2.5625 1.5625 4 4 C4.07635097 8.27565406 3.64385417 10.26416666 0.8125 13.5 C-2 15 -2 15 -5.0625 15.0625 C-8.78456393 13.71622156 -10.08197413 12.45244657 -12 9 C-11.93689022 5.84451076 -11.48864121 3.86230802 -9.9375 1.125 C-6.75706022 -0.72170697 -3.51918753 -0.62186446 0 0 Z " fill="#FE3A49" transform="translate(38,34)"/>
</svg>
